<svg xmlns="http://www.w3.org/2000/svg" width="16" height="16" viewBox="0 0 16 16" fill="none" stroke="currentColor" stroke-width="1.5" stroke-linecap="round" stroke-linejoin="round"><path d="M8 6l-5.609 5.609A1.333 1.333 0 0 0 2 12.552v0.896a1.333 1.333 0 0 1-0.391 0.943A1.333 1.333 0 0 1 2.552 14h0.896a1.333 1.333 0 0 0 0.943-0.391L10 8"/><path d="M12 6l0.267 0.267a0.667 0.667 0 1 1-2 2l-2.534-2.534a0.667 0.667 0 1 1 2-2l0.267 0.267 2.267-2.267a0.667 0.667 0 1 1 2 2z"/><path d="M1.333 14.667l0.276-0.276"/></svg>
